<svg xmlns="http://www.w3.org/2000/svg" xmlns:xlink="http://www.w3.org/1999/xlink" version="1.1" id="Layer_1" x="0px" y="0px" enable-background="new 0 0 1024 1024" xml:space="preserve" viewBox="150.16 429.64 722.96 166.69">
<path fill="#FFFFFF" opacity="1.000000" stroke="none" d=" M253.945572,444.884094   C251.246780,438.382294 252.588577,433.357819 257.429749,430.751495   C261.834412,428.380188 267.285126,429.921997 270.072235,434.327637   C272.787048,438.619019 271.924438,443.967194 267.346436,447.074463   C264.710510,448.863586 263.945892,450.826447 264.155731,453.709381   C264.324768,456.031860 264.270142,458.373596 264.250427,460.706238   C264.210388,465.444489 263.037811,470.429382 270.867645,470.405914   C274.221527,470.395844 276.415375,473.974579 276.320679,477.759735   C276.236298,481.131378 277.874512,482.111969 280.927612,482.003448   C284.423004,481.879303 287.932861,481.846436 291.424347,482.019165   C294.964355,482.194153 297.572662,481.429138 299.899475,478.226257   C303.209869,473.669464 309.561646,473.638977 313.570709,477.453674   C317.535675,481.226440 317.577026,487.399109 313.663361,491.298248   C309.787750,495.159485 303.057709,495.334167 299.986542,490.795074   C297.372986,486.932220 294.513580,486.115112 290.385895,486.816833   C286.024353,487.558319 280.106506,484.884674 277.584198,488.250031   C275.492889,491.040344 276.958252,496.549042 276.970551,500.853058   C277.002777,512.143616 276.104919,510.596619 286.913849,510.719666   C288.413574,510.736725 289.921631,510.619934 291.412079,510.738129   C294.919922,511.016296 297.569855,510.335175 299.799255,506.972076   C302.600006,502.746979 307.825043,502.040436 311.769653,504.429565   C315.789368,506.864258 317.677429,511.451569 316.334991,515.521484   C314.760498,520.294800 310.396362,523.017029 305.470520,522.353394   C302.812927,521.995361 300.587921,520.693604 299.345215,518.471741   C297.786346,515.684509 295.608826,515.092712 292.717285,515.203064   C288.556580,515.361877 284.385529,515.285645 280.219391,515.252136   C278.061432,515.234741 276.745300,515.841553 276.816650,518.372742   C276.971558,523.869019 277.023010,529.370361 276.992188,534.868896   C276.975067,537.927124 278.484497,538.978577 281.340637,538.896790   C284.504333,538.806152 287.679047,538.771362 290.838013,538.930115   C294.655029,539.121948 297.632233,538.608948 300.218048,534.952942   C303.396698,530.458862 310.032043,530.635315 313.953369,534.453735   C317.887970,538.285217 317.758118,544.400818 313.660400,548.243958   C309.412994,552.227539 303.190887,552.353821 300.120239,547.565491   C297.535919,543.535583 294.426605,543.091431 290.454010,543.353455   C288.462860,543.484741 286.441010,543.526917 284.458679,543.338928   C279.803009,542.897461 276.560974,543.478760 276.258759,549.490295   C276.041382,553.813965 272.395294,556.020996 268.155457,556.175720   C265.001678,556.290833 264.160156,557.724792 264.267517,560.553650   C264.400146,564.048584 264.425629,567.557800 264.268707,571.050537   C264.110565,574.570312 264.732086,577.128418 268.192261,579.320557   C272.888947,582.295959 273.005768,588.685303 269.231781,592.905701   C265.380859,597.212158 259.602570,597.455017 255.531998,593.481445   C251.628098,589.670593 251.145325,582.616821 255.505539,579.766357   C259.702576,577.022522 259.807343,573.645264 259.786285,569.571960   C259.717621,556.278320 259.770966,556.213135 246.829651,556.290100   C234.439819,556.363831 236.204407,554.678162 236.033524,567.251526   C235.966690,572.169922 235.436081,576.760742 240.652267,580.354126   C244.884766,583.269897 244.045471,589.979126 240.125671,593.623718   C236.167282,597.304199 230.356979,597.151367 226.659500,593.269470   C222.877747,589.299072 222.648010,582.354004 227.224579,579.590881   C231.337387,577.107666 231.394745,574.102844 231.026276,570.427551   C230.568619,565.863098 233.247818,559.996521 229.929993,557.062317   C226.964111,554.439392 221.285278,556.323853 216.810562,556.312195   C205.829391,556.283691 207.437988,555.148804 207.301758,565.931702   C207.276489,567.931335 207.400757,569.938232 207.271103,571.929810   C207.073242,574.969360 207.817245,577.072266 210.722336,578.920593   C215.648880,582.055054 216.127106,588.473389 212.370575,592.899231   C208.649811,597.282898 202.222748,597.497925 198.241745,593.371826   C194.292542,589.278687 194.399384,582.624817 199.168304,579.348755   C202.347076,577.165039 202.954315,574.696472 202.746185,571.369873   C202.611176,569.211792 202.591766,567.028870 202.748062,564.873596   C203.102158,559.990784 203.338745,555.776367 196.242249,555.631287   C192.750137,555.559937 190.638733,552.076721 190.296127,548.481384   C189.941833,544.763367 187.978897,543.755066 184.621231,543.968201   C181.965454,544.136841 179.281708,544.135071 176.625702,543.966980   C172.616180,543.713257 169.456314,544.407532 166.672394,548.001221   C163.128998,552.575317 157.043976,552.346008 153.061752,548.314514   C149.246078,544.451660 149.190094,538.648010 152.931946,534.862305   C156.903824,530.843872 163.316742,530.482239 166.632690,534.982422   C169.533890,538.919800 172.926376,539.083801 177.043762,539.004883   C190.187546,538.752808 190.220215,538.830200 189.964096,525.522766   C189.739700,513.864380 191.354736,515.404785 179.378448,515.279602   C174.317871,515.226746 169.547897,514.544128 165.959763,520.213074   C163.358948,524.322144 156.464935,523.470764 153.051498,519.878540   C149.305023,515.935852 149.258865,510.234039 152.942078,506.366730   C156.584656,502.542114 163.368484,501.823730 166.224701,506.108398   C169.495804,511.015564 173.569260,510.811707 178.247498,510.764374   C189.968811,510.645691 189.969482,510.711578 189.929459,499.161713   C189.887589,487.076447 189.887268,487.123199 177.649963,487.041290   C173.283768,487.012054 169.479111,486.943298 166.301529,491.305573   C163.139999,495.645905 156.646866,495.152435 152.999481,491.393402   C149.118164,487.393311 149.233871,481.216827 153.258392,477.572449   C157.342072,473.874512 163.779663,473.558289 166.523788,478.029236   C169.408600,482.729431 173.087570,482.889343 177.498154,482.638000   C181.309753,482.420776 185.125854,482.282227 188.740036,482.117950   C190.310776,480.832886 189.814011,479.187683 190.090942,477.770477   C190.995667,473.140717 193.639755,470.049835 198.419235,469.879456   C202.159561,469.746124 202.890671,468.000366 202.709412,464.845398   C202.556717,462.187897 202.554810,459.505829 202.721954,456.849457   C202.991409,452.567169 202.596390,449.128784 198.399170,446.187439   C193.877975,443.019135 194.292450,436.159882 198.229614,432.508911   C202.322021,428.714050 208.416473,428.924805 212.126938,432.989563   C215.485062,436.668365 215.378098,443.384430 211.183807,446.367157   C207.795074,448.777039 206.966125,451.514862 207.257599,455.252075   C207.464325,457.902435 207.293457,460.582062 207.295822,463.248627   C207.301559,469.720917 207.302658,469.730347 214.001770,469.740295   C218.334869,469.746735 222.669250,469.653076 227.000656,469.733490   C229.766098,469.784851 230.916870,468.576721 230.867950,465.838440   C230.784607,461.173523 230.707291,456.500458 230.896713,451.841766   C231.009033,449.079224 228.972412,448.244934 227.362869,446.879150   C223.941071,443.975647 222.860916,440.296478 224.434128,436.097229   C225.995270,431.930176 229.182404,429.663330 233.654037,429.749451   C238.155777,429.836151 241.193634,432.375092 242.608459,436.516174   C244.161530,441.061859 242.437912,444.854156 238.581802,447.297546   C236.062683,448.893768 235.494568,450.570099 235.693512,453.424500   C236.050415,458.545471 235.794174,463.709137 235.794174,469.640594   C242.999420,469.640594 249.923157,469.691406 256.845459,469.613495   C259.330841,469.585541 259.646667,467.704834 259.646240,465.725433   C259.645233,461.225647 259.417725,456.709686 259.725403,452.230743   C260.019348,447.951721 255.604004,447.843292 253.945572,444.884094  M212.952728,536.776001   C213.846771,541.801819 216.807877,543.197571 221.804565,542.912048   C230.264755,542.428650 238.770981,542.581055 247.252975,542.735168   C250.551361,542.795166 252.499039,542.021912 253.338654,538.506470   C254.133438,535.178894 256.898010,533.416077 260.065582,532.407532   C261.893555,531.825500 263.526733,531.145020 263.486572,528.780823   C263.308990,518.317139 264.072113,507.841888 263.007874,497.385437   C262.793945,495.283386 262.014282,493.922821 259.943512,493.423462   C256.182892,492.516541 253.769333,490.154724 252.907257,486.443817   C252.340805,484.005524 250.928558,483.242981 248.636826,483.248474   C238.653702,483.272430 228.670410,483.258789 218.687317,483.220215   C216.272003,483.210876 214.612976,483.851807 213.973068,486.559418   C213.152588,490.031097 210.880676,492.504883 207.368927,493.385803   C204.153931,494.192291 203.256271,496.124054 203.341797,499.224396   C203.580093,507.861206 203.834763,516.508728 203.636765,525.141785   C203.536682,529.505615 204.361877,532.490234 209.176346,533.322632   C210.634766,533.574829 211.760284,534.784119 212.952728,536.776001  z" data-darkreader-inline-fill="" data-darkreader-inline-stroke="" style="--darkreader-inline-fill: #4B0082; --darkreader-inline-stroke: none;"/>
<path fill="#4B0082" opacity="1.000000" stroke="none" d=" M472.230286,464.000854   C471.961029,475.987762 472.232056,487.465302 472.995911,498.926361   C473.204590,502.057098 471.896484,503.657745 468.896515,503.997467   C465.522675,504.379547 462.724182,504.147369 461.653320,499.908325   C458.474365,487.324371 455.028442,474.807831 451.680023,462.266754   C451.392975,461.191772 451.485168,459.948334 450.424408,459.177246   C449.428711,472.196228 451.322388,485.119385 451.249664,498.086700   C451.235046,500.693573 451.222992,503.167328 448.069733,504.069733   C443.946777,505.249603 441.891632,503.491669 441.747314,498.403687   C441.336487,483.920959 440.963287,469.437042 440.637146,454.952148   C440.539917,450.633575 439.630768,446.347626 440.270416,441.994690   C440.667297,439.293671 440.666199,436.443970 444.599091,436.686462   C448.345337,436.917419 452.744507,435.226990 454.059052,441.183289   C455.887604,449.468170 458.193420,457.648163 460.321136,465.866302   C460.939728,468.255646 461.647705,470.621826 462.788696,472.924561   C462.788696,462.349823 462.865021,451.774261 462.749420,441.200775   C462.705902,437.223145 464.074310,435.286407 468.321350,435.691650   C471.823029,436.025787 472.158539,438.428497 472.185150,441.010742   C472.262390,448.506775 472.223938,456.003998 472.230286,464.000854  z" data-darkreader-inline-fill="" data-darkreader-inline-stroke="" style="--darkreader-inline-fill: #4B0082; --darkreader-inline-stroke: none;"/>
<path fill="#4B0082" opacity="1.000000" stroke="none" d=" M682.811523,462.333679   C683.942261,466.407013 684.940308,470.092682 685.938354,473.778381   C686.464478,463.792725 687.060669,453.864502 686.272522,443.898010   C686.014099,440.629608 684.503418,436.089355 690.476929,435.680420   C693.458557,435.476288 695.108948,436.421967 695.442688,439.715057   C696.166504,446.856201 695.680237,453.981598 695.368958,461.092072   C694.828613,473.435638 696.542542,485.698608 696.351746,498.026672   C696.300415,501.346069 695.692444,503.416077 691.924316,503.775818   C688.284668,504.123260 685.839172,503.375763 684.853333,499.381592   C681.901917,487.423401 678.771606,475.509247 675.690063,463.583374   C675.251953,461.887878 674.697144,460.222534 674.429810,459.326172   C674.429810,471.739349 674.351746,484.809784 674.483765,497.878082   C674.517456,501.216400 674.380127,503.894958 670.161316,504.227051   C665.814270,504.569214 665.226196,501.629761 665.045593,498.486206   C664.825989,494.665100 664.878601,490.828766 664.791626,486.999512   C664.455627,472.192810 664.081177,457.386871 663.795837,442.579193   C663.742249,439.797607 663.328674,436.501678 667.777893,436.690765   C671.581726,436.852417 676.248840,434.511078 677.492981,441.131195   C678.811401,448.146576 680.916992,455.014038 682.811523,462.333679  z" data-darkreader-inline-fill="" data-darkreader-inline-stroke="" style="--darkreader-inline-fill: #4B0082; --darkreader-inline-stroke: none;"/>
<path fill="#4B0082" opacity="1.000000" stroke="none" d=" M845.026917,502.962952   C843.653687,500.989868 843.847778,499.120514 843.842041,497.304016   C843.784119,479.152771 843.883240,460.999390 843.614441,442.851410   C843.540344,437.846008 845.369019,436.182922 850.235352,436.029816   C867.964172,435.472107 872.320801,439.235168 872.836670,456.840424   C873.138916,467.156464 873.194580,477.487732 873.035278,487.807129   C872.862305,499.013153 867.443481,504.197968 856.169434,504.226837   C852.554993,504.236115 848.834229,504.893127 845.026917,502.962952  M862.724365,462.520813   C862.550903,458.050903 863.286743,453.532013 862.104248,449.118561   C861.399780,446.489380 859.533813,445.372437 856.876099,445.455994   C853.899658,445.549591 854.051453,447.755280 854.053833,449.753632   C854.070007,463.391663 854.106995,477.029755 854.181396,490.667572   C854.189270,492.113953 853.991455,493.877411 855.859741,494.432922   C857.503479,494.921722 859.164307,494.688843 860.618286,493.639771   C862.753113,492.099426 863.103821,489.890717 863.059937,487.454071   C862.916260,479.474884 862.838501,471.494476 862.724365,462.520813  z" data-darkreader-inline-fill="" data-darkreader-inline-stroke="" style="--darkreader-inline-fill: #4B0082; --darkreader-inline-stroke: none;"/>
<path fill="#4B0082" opacity="1.000000" stroke="none" d=" M399.583618,504.900391   C394.520874,506.097015 392.089661,504.012207 390.679169,499.653381   C388.399078,492.607269 385.766144,485.675354 382.825500,478.795593   C381.525421,485.763733 382.203033,492.668823 382.256165,499.546356   C382.284027,503.154449 381.420197,505.172363 377.330933,505.260437   C373.336426,505.346527 372.053253,503.546417 372.046356,499.867645   C372.010223,480.576263 371.910797,461.284912 371.776215,441.993927   C371.749420,438.152618 373.586365,436.566925 377.300323,436.695831   C379.625366,436.776581 381.956573,436.665680 384.285004,436.666443   C395.363983,436.670135 400.205139,440.983887 400.581665,452.122070   C400.855255,460.215271 401.393616,468.646271 393.867126,474.546570   C391.895508,476.092255 393.168610,477.898712 393.792969,479.534760   C396.340668,486.210297 398.954407,492.860626 401.535675,499.523346   C402.365112,501.664276 402.998383,503.765045 399.583618,504.900391  M388.298431,447.164520   C385.487610,446.377655 382.000702,444.603210 381.526581,449.472595   C381.079346,454.066437 381.382324,458.749023 381.587067,463.382355   C381.663269,465.106018 381.822571,467.334991 384.342316,467.429352   C386.961243,467.527466 390.014984,466.778015 390.319458,464.065063   C390.933777,458.591675 392.216217,452.863556 388.298431,447.164520  z" data-darkreader-inline-fill="" data-darkreader-inline-stroke="" style="--darkreader-inline-fill: #4B0082; --darkreader-inline-stroke: none;"/>
<path fill="#4B0082" opacity="1.000000" stroke="none" d=" M747.264893,448.028870   C747.270264,452.017944 747.428894,455.521301 747.241760,459.006073   C747.062927,462.335266 748.095398,463.865234 751.718689,463.800018   C755.128906,463.738678 755.967896,462.205017 755.896790,459.164246   C755.764526,453.508606 755.795105,447.846313 755.892944,442.189148   C755.947205,439.054047 755.608521,435.655273 760.535583,435.660065   C765.605957,435.665009 766.909180,438.784668 766.669495,442.808777   C765.926270,455.284393 766.664490,467.760040 766.398254,480.232697   C766.263306,486.554413 766.182983,492.883453 766.333435,499.203064   C766.440552,503.705078 763.928284,504.433014 760.259460,504.254883   C756.262268,504.060852 755.927063,501.585419 756.054688,498.400299   C756.333435,491.447418 756.368286,484.485138 756.605896,477.530182   C756.723328,474.091919 754.856140,473.383179 751.891846,473.372711   C748.871521,473.362061 747.182312,474.201324 747.240723,477.592957   C747.361084,484.580963 747.228210,491.572937 747.299194,498.562256   C747.337830,502.366058 746.068604,504.424316 741.796265,504.388397   C737.661194,504.353607 736.663330,502.259125 736.779175,498.725037   C737.419983,479.183502 736.206604,459.625488 737.289734,440.085785   C737.440247,437.370483 738.325500,435.697540 741.413574,435.677979   C744.324707,435.659515 746.909607,435.923706 747.158691,439.551483   C747.340698,442.202606 747.241089,444.873108 747.264893,448.028870  z" data-darkreader-inline-fill="" data-darkreader-inline-stroke="" style="--darkreader-inline-fill: #4B0082; --darkreader-inline-stroke: none;"/>
<path fill="#4B0082" opacity="1.000000" stroke="none" d=" M826.945679,486.819916   C826.993164,472.353210 827.014343,458.361511 827.189453,444.371704   C827.219727,441.945557 826.717346,439.078156 828.665039,437.253448   C830.090698,435.917816 832.381409,435.734558 834.381653,436.253326   C836.916992,436.910828 836.846680,439.200714 836.863708,441.149445   C837.010376,457.972809 837.231445,474.797882 837.109619,491.620117   C837.056580,498.946381 831.374878,504.500732 824.191650,505.130127   C816.780396,505.779480 810.570923,501.594482 808.749390,494.535492   C808.214478,492.462769 807.925110,490.268799 807.913208,488.128204   C807.828613,472.970398 807.887756,457.811798 807.798706,442.654022   C807.777954,439.114563 808.064880,436.593658 812.755981,436.554199   C817.615662,436.513367 818.164429,439.113800 818.153748,442.875610   C818.112122,457.533234 818.157043,472.191101 818.180847,486.848877   C818.182983,488.180756 818.195679,489.519104 818.323181,490.842926   C818.565125,493.353210 819.390076,495.484741 822.396790,495.588287   C825.656250,495.700592 826.694458,493.579926 826.906128,490.789490   C826.994019,489.629852 826.953552,488.460510 826.945679,486.819916  z" data-darkreader-inline-fill="" data-darkreader-inline-stroke="" style="--darkreader-inline-fill: #4B0082; --darkreader-inline-stroke: none;"/>
<path fill="#4B0082" opacity="1.000000" stroke="none" d=" M792.226318,436.542786   C794.867310,437.192200 795.145142,438.974548 795.403259,440.864685   C798.011719,459.967529 800.696655,479.060150 803.222900,498.173767   C803.543030,500.595886 804.498779,503.782440 800.223755,504.224335   C796.125732,504.647980 793.895386,503.001892 793.552368,498.809937   C793.376404,496.659668 792.963501,494.529175 792.672302,492.387787   C792.267700,489.412201 791.689758,487.026428 787.625793,487.092316   C783.824646,487.153931 782.128113,488.489349 781.973999,492.238678   C781.878906,494.552917 781.298767,496.843414 781.119446,499.158752   C780.809753,503.156464 778.726318,504.651642 774.811462,504.251404   C770.780945,503.839325 771.211365,501.348694 771.629089,498.481720   C774.431335,479.249573 777.167969,460.007782 779.876831,440.762238   C780.297058,437.776947 781.885437,436.336823 784.849060,436.355133   C787.170349,436.369476 789.491333,436.419739 792.226318,436.542786  M788.797241,459.685272   C788.463501,457.777985 789.152893,455.641357 787.716309,453.559845   C785.378296,460.234039 785.947693,466.840332 784.747375,473.190765   C784.477539,474.618195 783.834656,476.293671 785.479431,477.263092   C786.640503,477.947479 788.138062,477.922852 789.351685,477.343689   C791.380432,476.375488 790.575073,474.509949 790.391296,472.931335   C789.910156,468.800568 789.364075,464.677368 788.797241,459.685272  z" data-darkreader-inline-fill="" data-darkreader-inline-stroke="" style="--darkreader-inline-fill: #4B0082; --darkreader-inline-stroke: none;"/>
<path fill="#4B0082" opacity="1.000000" stroke="none" d=" M434.959534,485.244171   C435.537384,490.315674 435.977966,494.956207 436.590515,499.573975   C436.884247,501.787903 436.874146,503.767242 434.144409,504.073761   C431.536438,504.366577 428.452728,504.932404 427.566711,501.350983   C426.732147,497.977539 426.140503,494.508148 425.847260,491.046661   C425.552765,487.569763 423.509338,487.214417 420.712952,487.179291   C417.845551,487.143280 415.806641,487.809875 415.407227,491.030945   C415.059296,493.836700 414.393677,496.624084 414.294098,499.434662   C414.150940,503.477509 412.008484,504.443939 408.413910,504.264465   C404.410980,504.064606 404.424469,501.683411 404.859680,498.738281   C407.677979,479.667633 410.550446,460.604156 413.203644,441.510345   C414.175964,434.512970 419.361420,437.181641 423.202118,436.680023   C427.428925,436.127960 428.668427,438.723022 429.141327,442.291382   C431.020050,456.467316 432.969604,470.633850 434.959534,485.244171  M422.823364,466.426208   C422.388062,462.829163 421.952789,459.232117 421.517487,455.635101   C419.032288,462.775360 418.188385,469.895538 417.981964,477.113525   C422.638855,478.536133 424.399567,477.050568 423.751587,472.699432   C423.483734,470.900604 423.205750,469.103241 422.823364,466.426208  z" data-darkreader-inline-fill="" data-darkreader-inline-stroke="" style="--darkreader-inline-fill: #4B0082; --darkreader-inline-stroke: none;"/>
<path fill="#4B0082" opacity="1.000000" stroke="none" d=" M621.071899,494.872253   C620.752808,496.945587 620.372375,498.581604 620.257263,500.236084   C619.972351,504.329590 617.174438,504.377167 614.161926,504.194061   C610.843750,503.992340 610.689209,502.037567 611.089539,499.310822   C613.890259,480.233337 616.782532,461.165161 619.199524,442.037628   C620.123047,434.729187 625.176819,437.094543 629.247070,436.657440   C633.878357,436.160065 634.759888,439.112946 635.232117,442.772308   C637.637695,461.415344 640.103333,480.050781 642.613647,498.679993   C642.939453,501.097290 643.614441,503.552856 640.211060,504.097778   C637.051270,504.603699 634.030945,504.384003 633.241150,500.395081   C632.692932,497.626526 632.105835,494.826294 631.990051,492.021454   C631.844604,488.496643 630.538147,487.062500 626.819336,487.111176   C623.243774,487.158020 621.536682,488.480408 621.340271,491.952576   C621.293213,492.784119 621.202148,493.613159 621.071899,494.872253  M627.727905,454.582306   C627.688171,454.082733 627.460327,453.971008 627.084778,454.294159   C626.969971,454.392914 626.912292,454.578308 626.867493,454.735168   C624.775879,462.067261 624.720520,469.630554 623.770203,477.070679   C626.236328,477.885956 628.109192,478.076172 630.223755,476.628540   C629.419250,469.535583 628.602295,462.332733 627.727905,454.582306  z" data-darkreader-inline-fill="" data-darkreader-inline-stroke="" style="--darkreader-inline-fill: #4B0082; --darkreader-inline-stroke: none;"/>
<path fill="#4B0082" opacity="1.000000" stroke="none" d=" M590.460205,479.172424   C590.458740,486.022217 590.546021,492.490173 590.478882,498.956543   C590.443420,502.372070 589.230164,504.528870 585.101074,504.346558   C580.984009,504.164764 580.694885,501.722412 580.713379,498.654724   C580.825623,480.035583 580.950195,461.416412 580.986145,442.797089   C580.994446,438.503510 582.500854,436.315857 587.197327,436.682587   C591.322327,437.004669 595.473145,436.638031 599.586182,437.613647   C604.677795,438.821289 607.851562,441.938904 608.943726,446.876526   C610.358093,453.270477 610.376892,459.749237 608.611511,466.120605   C606.691223,473.050995 602.947510,475.940948 595.781494,476.531769   C593.863708,476.689850 591.188965,475.588348 590.460205,479.172424  M594.354492,446.289520   C591.494385,446.129944 591.161865,448.020569 591.133301,450.210266   C591.081177,454.207306 590.902405,458.205109 590.957581,462.200073   C590.984497,464.145050 589.883179,466.903534 593.369080,467.173004   C596.316467,467.400818 598.913391,466.438019 599.446533,463.280640   C600.195251,458.846130 600.136108,454.304443 599.424438,449.854614   C599.078674,447.692444 597.419128,446.478271 594.354492,446.289520  z" data-darkreader-inline-fill="" data-darkreader-inline-stroke="" style="--darkreader-inline-fill: #4B0082; --darkreader-inline-stroke: none;"/>
<path fill="#4B0082" opacity="1.000000" stroke="none" d=" M495.201599,495.021790   C497.317688,493.544983 497.933685,491.742981 497.853546,489.609283   C497.715240,485.925873 499.577301,484.716248 503.138214,484.813049   C506.790741,484.912354 508.114441,486.499512 508.138977,490.023468   C508.194061,497.934906 502.733643,504.361359 495.071014,505.101288   C486.877441,505.892487 480.211761,501.009277 479.500275,492.563721   C478.272644,477.992096 478.394745,463.333527 479.222931,448.749664   C479.695312,440.431396 486.459320,435.373138 494.597443,435.785217   C502.200134,436.170197 507.933960,442.076569 508.232117,449.743195   C508.350220,452.779633 507.703186,455.000977 504.040527,455.145081   C500.729462,455.275421 497.933746,454.988800 497.929047,450.668549   C497.925781,447.643707 496.870117,445.305054 493.379608,445.419800   C489.826996,445.536560 489.202118,448.133301 489.175018,451.032013   C489.058441,463.509369 488.822235,475.987671 488.913483,488.463562   C488.939606,492.036896 489.076813,496.357941 495.201599,495.021790  z" data-darkreader-inline-fill="" data-darkreader-inline-stroke="" style="--darkreader-inline-fill: #4B0082; --darkreader-inline-stroke: none;"/>
<path fill="#4B0082" opacity="1.000000" stroke="none" d=" M702.094971,452.334106   C703.057983,440.461212 708.631836,434.988800 718.558594,435.717987   C726.357239,436.290863 732.169861,443.512421 731.364685,451.300781   C731.022095,454.614288 728.860779,454.809845 726.446899,454.888214   C723.969788,454.968628 721.639771,454.765778 721.635742,451.381744   C721.631775,448.029816 720.693359,445.237396 716.686462,445.357269   C712.464783,445.483582 712.305115,448.794861 712.283630,451.863037   C712.198730,464.016632 712.196472,476.170776 712.169556,488.324738   C712.168457,488.823242 712.243652,489.321442 712.256531,489.820465   C712.335327,492.869751 713.650757,495.242310 716.837036,495.290344   C719.955078,495.337402 720.828979,492.784760 721.009155,490.074493   C721.192627,487.315002 721.293091,484.738281 725.231262,484.683441   C730.249146,484.613556 731.344788,485.518127 731.286560,490.701996   C731.198730,498.516876 725.496643,504.457642 717.505737,505.059204   C710.131531,505.614410 703.263123,500.698822 702.829468,493.086334   C702.066040,479.684692 702.282104,466.227203 702.094971,452.334106  z" data-darkreader-inline-fill="" data-darkreader-inline-stroke="" style="--darkreader-inline-fill: #4B0082; --darkreader-inline-stroke: none;"/>
<path fill="#4B0082" opacity="1.000000" stroke="none" d=" M541.008911,446.020874   C537.854980,449.704285 538.987244,453.282776 540.847351,456.498779   C543.678406,461.393372 546.929871,466.045746 550.026489,470.785522   C553.132751,475.540161 556.068970,480.391571 557.546631,485.934235   C559.667114,493.888397 556.917480,499.049011 552.470825,502.512482   C547.818481,506.136139 542.206421,506.067383 536.881775,503.237671   C530.932617,500.076050 529.765198,494.386597 529.316956,488.421570   C529.156433,486.285065 530.333862,484.868225 532.571045,484.848053   C535.095337,484.825226 538.131409,483.684113 539.421875,487.177887   C539.816284,488.245697 539.860413,489.460175 539.959229,490.616547   C540.221375,493.683380 541.491028,495.903961 544.911255,495.494415   C548.362183,495.081116 549.036072,492.371124 548.661133,489.514435   C548.013000,484.575165 545.089111,480.609863 542.545471,476.524200   C539.116028,471.015778 534.962524,465.960876 532.245361,460.005341   C530.854431,456.956726 529.706909,453.869934 529.660156,450.439972   C529.545349,442.017090 535.148743,435.889038 543.234192,435.693695   C552.053040,435.480621 557.824585,440.908295 558.075012,449.652252   C558.143127,452.032806 557.716919,454.087341 554.719666,454.122437   C552.171753,454.152283 549.068665,455.144440 548.596008,451.038147   C548.086731,446.613647 546.221130,444.105347 541.008911,446.020874  z" data-darkreader-inline-fill="" data-darkreader-inline-stroke="" style="--darkreader-inline-fill: #4B0082; --darkreader-inline-stroke: none;"/>
<path fill="#4B0082" opacity="1.000000" stroke="none" d=" M342.802368,464.048767   C342.800476,456.418854 342.940399,449.276093 342.741821,442.142731   C342.627411,438.031799 344.240692,436.439575 348.322601,436.625336   C353.134766,436.844299 357.967133,436.782990 362.785400,436.649750   C366.197052,436.555450 367.000488,438.362793 367.015320,441.318878   C367.030457,444.337372 365.487213,445.412506 362.737396,445.608490   C352.279999,446.353638 352.548035,446.385559 352.207794,456.984222   C352.037720,462.283417 353.485260,464.726440 359.074890,464.164551   C362.352448,463.835083 363.903595,465.856445 363.981415,469.056305   C364.069244,472.667023 361.896851,473.802673 358.814880,473.342682   C353.240906,472.510651 351.944366,475.304504 352.141693,480.194000   C352.403015,486.668915 352.197388,493.161346 352.320160,499.643799   C352.381165,502.862152 351.214203,504.750610 347.796783,504.811279   C344.111206,504.876709 342.861908,502.778931 342.862427,499.424530   C342.864227,487.796295 342.825562,476.168091 342.802368,464.048767  z" data-darkreader-inline-fill="" data-darkreader-inline-stroke="" style="--darkreader-inline-fill: #4B0082; --darkreader-inline-stroke: none;"/>
<path fill="#4B0082" opacity="1.000000" stroke="none" d=" M657.362976,492.373627   C657.348083,494.828979 657.229858,496.830872 657.362671,498.816010   C657.600037,502.364899 656.763428,504.235626 652.491333,504.297516   C647.938171,504.363525 647.687988,501.975403 647.724243,498.670288   C647.901001,482.558563 648.060852,466.446594 648.164673,450.334290   C648.183838,447.357666 647.935974,444.378174 647.777893,441.401794   C647.580872,437.692047 649.244873,435.859039 653.029602,435.791779   C656.786438,435.725037 657.952881,437.841003 658.000427,441.134766   C658.184998,453.925873 658.478760,466.717407 657.815979,479.504211   C657.601746,483.638123 658.257812,487.802948 657.362976,492.373627  z" data-darkreader-inline-fill="" data-darkreader-inline-stroke="" style="--darkreader-inline-fill: #4B0082; --darkreader-inline-stroke: none;"/>
<path fill="#4B0082" opacity="1.000000" stroke="none" d=" M523.283936,497.747345   C523.048157,501.007294 524.203857,504.198517 519.241943,504.571655   C514.917969,504.896820 513.562012,503.685669 513.588440,499.506317   C513.710205,480.196533 513.693787,460.885559 513.628845,441.575317   C513.618530,438.494080 514.325623,436.358185 517.799133,436.045898   C521.804077,435.685883 523.212708,437.309082 523.487427,441.464691   C524.564392,457.757721 523.208984,474.018463 523.313171,490.291931   C523.328125,492.622742 523.298340,494.953827 523.283936,497.747345  z" data-darkreader-inline-fill="" data-darkreader-inline-stroke="" style="--darkreader-inline-fill: #4B0082; --darkreader-inline-stroke: none;"/>
<path fill="#FFFFFF" opacity="1.000000" stroke="none" d=" M419.555908,570.629761   C419.917297,563.282227 419.605988,563.030090 413.612701,563.204102   C410.764404,563.286743 409.479797,564.266541 409.176056,567.236755   C408.501221,573.836731 407.506531,580.405090 406.579102,586.977356   C406.394897,588.282898 406.016724,589.580383 405.568420,590.824036   C405.082062,592.173340 404.104523,593.189880 402.557129,592.858948   C400.849854,592.493713 400.850952,591.022827 401.019196,589.657654   C401.729919,583.890503 402.386475,578.114319 403.239655,572.367676   C403.852051,568.242798 404.715149,564.165100 400.382751,560.872620   C403.788605,558.925354 405.175201,556.215515 406.232697,552.988342   C407.528503,549.033997 410.844910,547.018494 415.032806,546.742126   C416.312012,546.657776 417.900085,546.473877 418.248627,548.269897   C418.564850,549.899292 417.499268,550.682373 416.048004,551.034851   C415.242340,551.230652 414.369293,551.283813 413.640747,551.636902   C411.483856,552.682068 410.301361,554.602417 410.541046,556.875244   C410.824707,559.564880 413.277374,558.598022 414.937531,558.855591   C419.252625,559.525024 422.016479,558.216858 422.401123,553.364807   C422.528595,551.756714 423.233032,549.741333 425.429321,550.198120   C427.653290,550.660583 427.353363,552.768127 426.899109,554.312683   C425.933197,557.596985 426.989044,559.013611 430.381775,558.980835   C431.594788,558.969116 432.755310,559.536804 432.759735,560.999023   C432.765045,562.764771 431.398102,563.252686 430.009399,563.155457   C426.180969,562.887573 425.181274,564.985413 425.072601,568.329102   C424.981232,571.140137 424.379242,573.930969 424.181976,576.743225   C423.991119,579.464355 423.654327,582.468994 428.098694,581.570251   C429.217621,581.344055 430.012390,581.945312 430.245544,583.117615   C430.426392,584.026978 430.087189,584.784668 429.354340,585.283630   C427.030914,586.865479 424.505035,587.535278 421.808075,586.422668   C419.187775,585.341614 418.010742,583.164856 418.238068,580.440613   C418.499878,577.302551 419.072906,574.190552 419.555908,570.629761  z" data-darkreader-inline-fill="" data-darkreader-inline-stroke="" style="--darkreader-inline-fill: #ffffff; --darkreader-inline-stroke: none;"/>
<path fill="#FFFFFF" opacity="1.000000" stroke="none" d=" M559.057739,577.205872   C560.030090,569.193054 561.112732,561.625732 561.740417,554.020813   C562.118591,549.439331 563.564514,546.758789 568.703979,547.548706   C570.166260,547.773560 571.707214,547.737488 573.184875,547.574402   C591.670593,545.534546 595.422119,563.321472 589.725098,575.111023   C586.485413,581.815308 581.142395,585.502014 573.830017,586.406311   C571.691406,586.670776 569.529480,586.854919 567.376404,586.874695   C558.153809,586.959473 558.153564,586.932068 559.057739,577.205872  M583.389954,555.163818   C579.680786,551.157104 574.860596,552.185608 570.260986,552.309998   C568.718628,552.351685 567.771729,553.400879 567.592224,554.837219   C566.507202,563.519409 565.500793,572.211365 564.415833,581.339355   C571.560974,581.994873 578.288696,582.817261 582.644775,576.535645   C587.122192,570.078857 587.471802,562.932434 583.389954,555.163818  z" data-darkreader-inline-fill="" data-darkreader-inline-stroke="" style="--darkreader-inline-fill: #ffffff; --darkreader-inline-stroke: none;"/>
<path fill="#FFFFFF" opacity="1.000000" stroke="none" d=" M472.077026,562.938843   C469.270233,569.582642 466.645111,575.884033 463.936646,582.149475   C463.110107,584.061462 462.684937,586.558044 459.777557,586.418945   C456.659760,586.269775 456.952454,583.646606 456.526978,581.627014   C455.614990,577.298523 454.767029,572.956604 453.597382,567.154480   C450.915802,573.388489 448.813751,578.222290 446.759766,583.076477   C445.939850,585.014160 445.030273,586.796570 442.477509,586.407776   C440.043213,586.037170 440.082947,583.974670 439.770172,582.203430   C438.700043,576.143005 437.572540,570.090881 436.638763,564.009216   C436.371826,562.270691 434.761719,559.701477 437.771820,558.970093   C441.265137,558.121277 441.287140,561.194031 441.667694,563.392883   C442.426971,567.779846 443.013245,572.196777 443.800659,577.469788   C447.244415,572.449829 448.609558,567.340759 450.912781,562.705383   C451.766968,560.986267 452.095612,558.673279 454.810669,558.842102   C457.690887,559.021118 457.471100,561.533447 457.850494,563.309326   C458.838287,567.933655 459.551147,572.616699 460.601257,578.565186   C463.292725,571.963135 465.476440,566.614685 467.652832,561.263245   C468.352905,559.541870 469.462158,558.354858 471.459015,558.934021   C473.815308,559.617493 472.561157,561.236084 472.077026,562.938843  z" data-darkreader-inline-fill="" data-darkreader-inline-stroke="" style="--darkreader-inline-fill: #ffffff; --darkreader-inline-stroke: none;"/>
<path fill="#FFFFFF" opacity="1.000000" stroke="none" d=" M715.283752,559.314148   C718.671936,558.172424 719.155090,560.485962 719.556091,562.625244   C720.177979,562.428284 720.554260,562.416809 720.769226,562.224731   C724.089661,559.259033 727.552246,556.251404 732.282776,558.971619   C736.934143,561.646240 736.863281,566.304565 736.399719,570.914612   C735.988770,575.001770 734.468384,578.675476 731.877197,581.839844   C728.082397,586.474243 723.420593,588.172119 717.712463,585.449402   C715.269287,587.638672 716.641541,590.647522 715.674133,593.045349   C715.007019,594.698792 714.032654,595.460571 712.273376,595.209900   C710.734314,594.990479 710.437439,593.887207 710.598022,592.644714   C712.022827,581.615479 712.463196,570.455750 715.283752,559.314148  M728.324646,578.641846   C730.413757,575.456726 731.101501,571.909424 730.951233,568.172424   C730.870300,566.159973 730.774780,564.032104 728.499512,563.138977   C726.119263,562.204651 724.323425,563.484619 722.723083,565.045166   C719.445374,568.241394 718.237976,572.312866 717.797424,576.732178   C717.369507,581.024536 720.172668,583.319946 724.210266,581.720154   C725.550049,581.189209 726.656494,580.069336 728.324646,578.641846  z" data-darkreader-inline-fill="" data-darkreader-inline-stroke="" style="--darkreader-inline-fill: #ffffff; --darkreader-inline-stroke: none;"/>
<path fill="#FFFFFF" opacity="1.000000" stroke="none" d=" M367.858582,569.426270   C369.736084,575.754517 367.867737,581.255676 362.980164,584.662415   C358.371582,587.874695 351.852539,588.037781 347.455811,584.925171   C345.894989,583.820190 343.675293,582.718018 345.341217,580.210388   C346.783234,578.039795 348.453979,579.075256 350.044098,580.202026   C352.671692,582.063965 355.575928,582.492676 358.604065,581.512512   C361.418274,580.601501 363.012451,578.522339 363.214996,575.587158   C363.412109,572.730225 361.855560,570.890686 359.292419,569.839600   C358.060364,569.334351 356.806580,568.882263 355.563934,568.402588   C351.312134,566.761475 348.496429,564.032471 348.647797,559.125427   C348.806580,553.979492 351.152740,550.213501 355.914917,548.142273   C360.610565,546.099976 365.019653,546.783997 369.057068,549.888062   C370.061676,550.660400 370.663788,551.623779 369.834747,552.892090   C368.995911,554.175415 367.839539,554.735352 366.428925,553.929443   C364.363525,552.749451 362.264221,551.844666 359.812195,552.119812   C356.823761,552.455200 354.845276,553.983948 354.268738,556.990112   C353.714142,559.881775 355.087952,561.697937 357.667450,562.923828   C361.217957,564.611267 365.419342,565.283752 367.858582,569.426270  z" data-darkreader-inline-fill="" data-darkreader-inline-stroke="" style="--darkreader-inline-fill: #ffffff; --darkreader-inline-stroke: none;"/>
<path fill="#FFFFFF" opacity="1.000000" stroke="none" d=" M489.038635,582.384155   C485.900177,585.807556 482.451202,588.311768 477.972687,586.193542   C473.542908,584.098328 473.245087,579.751892 473.555115,575.455688   C474.353058,564.398254 484.657867,556.066406 494.291260,558.476562   C496.889252,559.126648 497.935150,560.288452 497.569855,562.971619   C496.743835,569.038635 496.092407,575.129211 495.292358,581.200073   C495.029968,583.191040 495.764709,585.912354 492.700317,586.366150   C489.562256,586.830688 490.591522,583.446716 489.038635,582.384155  M489.725403,575.079712   C491.032562,572.174500 491.664001,569.134521 491.777283,565.944580   C491.898987,562.517761 490.307953,561.900330 487.426453,562.991089   C483.606262,564.437195 480.915588,567.131226 479.864899,570.981323   C478.890900,574.550415 477.243134,579.252380 481.407196,581.270264   C485.726868,583.363464 487.463409,578.752502 489.725403,575.079712  z" data-darkreader-inline-fill="" data-darkreader-inline-stroke="" style="--darkreader-inline-fill: #ffffff; --darkreader-inline-stroke: none;"/>
<path fill="#FFFFFF" opacity="1.000000" stroke="none" d=" M683.397827,574.208130   C683.789734,567.802246 686.081177,562.838806 691.414978,559.712646   C698.508972,555.554871 706.171265,559.039612 707.849487,567.075195   C709.104004,573.081909 705.771851,581.152405 700.624695,584.574341   C692.297485,590.110413 684.166382,585.419250 683.397827,574.208130  M689.979187,580.033691   C693.765503,582.999023 696.961670,582.796570 699.632507,579.151306   C701.858704,576.112793 702.851868,572.552856 702.477356,568.805420   C702.204895,566.078186 701.202454,563.469666 698.097290,562.794006   C694.907104,562.099792 692.586731,563.743713 691.043823,566.343933   C688.625366,570.419434 688.453735,574.834900 689.979187,580.033691  z" data-darkreader-inline-fill="" data-darkreader-inline-stroke="" style="--darkreader-inline-fill: #ffffff; --darkreader-inline-stroke: none;"/>
<path fill="#FFFFFF" opacity="1.000000" stroke="none" d=" M663.894104,584.142212   C656.940308,587.815308 652.290833,587.664795 648.444214,583.858459   C644.660400,580.114258 644.190918,572.902466 647.317383,566.548645   C650.104675,560.884155 655.686646,557.229431 660.747498,557.988220   C664.248596,558.513245 667.271545,560.125854 667.883545,563.936584   C668.457886,567.512878 666.410767,570.048096 663.218689,571.344666   C660.469299,572.461426 657.527039,573.101013 654.676208,573.971802   C653.074219,574.461182 650.549622,573.890320 650.761658,576.692505   C650.946106,579.130615 652.052612,581.110352 654.694946,581.889893   C657.353943,582.674438 659.569885,581.645935 661.790894,580.447449   C663.189026,579.692932 664.766296,578.068420 666.123596,580.032532   C667.480591,581.996399 665.397705,582.886169 663.894104,584.142212  M658.397766,568.876343   C660.246155,568.208679 662.314819,567.741089 662.591309,565.301941   C662.739685,563.992798 661.925232,563.083069 660.771423,562.663391   C658.523743,561.845642 656.544434,562.592102 654.870361,564.109558   C653.187988,565.634583 651.516113,567.234131 651.950867,570.386292   C653.941040,569.947205 655.815063,569.533691 658.397766,568.876343  z" data-darkreader-inline-fill="" data-darkreader-inline-stroke="" style="--darkreader-inline-fill: #ffffff; --darkreader-inline-stroke: none;"/>
<path fill="#FFFFFF" opacity="1.000000" stroke="none" d=" M384.565125,586.970825   C376.548767,586.867859 372.813049,583.199402 372.657623,575.738525   C372.450623,565.801208 378.924225,558.308289 387.378693,558.636108   C391.903107,558.811523 394.835449,561.037781 396.341553,565.259888   C399.526550,574.188293 394.435699,583.885559 384.565125,586.970825  M381.269623,582.110718   C388.063141,582.922058 392.824921,576.625061 391.682861,568.340210   C391.002777,563.406982 386.495148,561.465027 382.456512,564.365356   C377.608704,567.846802 376.652100,576.900574 381.269623,582.110718  z" data-darkreader-inline-fill="" data-darkreader-inline-stroke="" style="--darkreader-inline-fill: #ffffff; --darkreader-inline-stroke: none;"/>
<path fill="#FFFFFF" opacity="1.000000" stroke="none" d=" M745.036621,562.020935   C748.891235,558.650085 752.810547,556.808777 757.642822,558.633423   C760.151489,559.580750 761.913086,561.240173 762.263916,564.012024   C762.636719,566.957214 761.403259,569.157532 758.940674,570.763550   C756.073059,572.633728 752.779358,573.187744 749.545166,573.960571   C747.755005,574.388367 745.107666,573.857117 745.400696,576.998108   C745.666382,579.846375 747.378479,581.501526 750.215454,581.882324   C752.820251,582.231873 755.129578,581.430115 757.267822,579.956482   C758.409119,579.169922 759.768799,578.531372 760.810425,579.938721   C761.927673,581.448181 760.508423,582.342773 759.595032,583.242676   C756.188354,586.598877 750.297852,587.851624 746.167786,585.982971   C741.265320,583.764771 739.561462,579.581909 739.839294,574.550720   C740.092407,569.966003 741.594604,565.756042 745.036621,562.020935  M751.166016,569.503113   C752.258545,569.126892 753.415771,568.874634 754.428772,568.346069   C756.047852,567.501282 757.964355,566.438110 757.095093,564.260681   C756.196350,562.009277 753.982300,561.950745 751.995117,562.672607   C748.824402,563.824219 747.050354,566.213379 746.320679,569.404114   C747.907166,570.440369 749.191833,569.624329 751.166016,569.503113  z" data-darkreader-inline-fill="" data-darkreader-inline-stroke="" style="--darkreader-inline-fill: #ffffff; --darkreader-inline-stroke: none;"/>
<path fill="#FFFFFF" opacity="1.000000" stroke="none" d=" M539.503174,569.316284   C536.326355,572.401184 532.544250,573.224243 528.809448,573.938354   C525.997620,574.475830 523.132568,574.783752 524.454895,578.663818   C525.586365,581.983887 528.240295,583.207092 531.610840,582.131470   C533.327393,581.583740 534.887756,580.555359 536.535156,579.779114   C537.700806,579.229980 538.839600,579.190369 539.553467,580.467834   C540.171570,581.573914 539.337036,582.305664 538.686218,583.058228   C535.894531,586.286438 529.436157,587.925354 525.341125,586.327515   C520.747620,584.535217 518.885742,580.877625 518.698425,576.170044   C518.326294,566.820312 523.860962,559.178955 531.750000,558.239258   C534.893250,557.864929 537.737000,558.641052 539.777161,561.215637   C541.798096,563.765930 541.616150,566.422729 539.503174,569.316284  M535.465271,564.077332   C530.569275,561.066895 526.115173,563.804321 525.420349,570.674438   C529.174805,568.965820 534.486755,570.703125 535.465271,564.077332  z" data-darkreader-inline-fill="" data-darkreader-inline-stroke="" style="--darkreader-inline-fill: #ffffff; --darkreader-inline-stroke: none;"/>
<path fill="#FFFFFF" opacity="1.000000" stroke="none" d=" M596.189941,568.565735   C598.411499,563.126343 601.734192,559.460571 607.365906,558.377258   C611.809448,557.522400 616.042908,559.568604 617.223328,563.158691   C618.378296,566.671143 616.336975,570.227783 611.866150,571.999268   C609.561401,572.912537 607.121765,573.568726 604.684937,574.040710   C602.360168,574.490967 599.638550,574.335815 600.477478,577.926941   C601.221069,581.109985 603.474426,582.849304 606.679321,582.440857   C608.571594,582.199707 610.365295,581.034302 612.153931,580.180969   C613.403198,579.584961 614.727112,578.844910 615.695190,580.283752   C616.699158,581.775818 615.328003,582.696960 614.376160,583.592102   C610.876221,586.883484 604.801697,588.063660 600.889526,586.019104   C596.397278,583.671448 594.800598,579.570374 594.908386,574.783386   C594.952515,572.825073 595.643677,570.881409 596.189941,568.565735  M602.076721,567.364258   C601.471558,568.807251 600.646240,570.583069 603.411560,570.122314   C605.824463,569.720398 608.196777,568.901733 610.489990,568.016052   C611.946594,567.453430 613.011963,566.235107 612.309387,564.482910   C611.685547,562.926819 610.267578,562.319641 608.681396,562.435974   C605.783264,562.648438 603.913208,564.473572 602.076721,567.364258  z" data-darkreader-inline-fill="" data-darkreader-inline-stroke="" style="--darkreader-inline-fill: #ffffff; --darkreader-inline-stroke: none;"/>
<path fill="#FFFFFF" opacity="1.000000" stroke="none" d=" M640.773499,568.716675   C638.215576,573.798218 635.841370,578.555176 633.450439,583.303772   C632.593018,585.006775 631.550415,586.513000 629.293762,586.152344   C627.203552,585.818176 626.965149,584.050720 626.543274,582.447571   C624.894897,576.183594 623.172974,569.937378 621.649475,563.643188   C621.246582,561.978699 619.540955,559.536072 622.848511,558.837524   C625.788391,558.216614 626.495544,560.530457 626.997070,562.694824   C628.144531,567.645691 629.197205,572.618530 630.579651,578.907593   C633.703491,572.488708 636.241394,567.336243 638.719116,562.155029   C639.889282,559.708130 641.209473,557.740234 644.593567,559.403442   C644.611816,562.897949 642.127075,565.396545 640.773499,568.716675  z" data-darkreader-inline-fill="" data-darkreader-inline-stroke="" style="--darkreader-inline-fill: #ffffff; --darkreader-inline-stroke: none;"/>
<path fill="#FFFFFF" opacity="1.000000" stroke="none" d=" M677.613159,578.461487   C676.628479,581.433289 678.280762,586.370300 674.020264,585.803162   C669.414551,585.189880 672.078552,580.683594 672.346252,577.971436   C673.257996,568.735352 674.545593,559.536499 675.673218,550.321472   C675.934143,548.189270 675.757690,545.526428 679.021362,546.040222   C681.888367,546.491577 681.200256,548.978821 680.983887,550.859985   C679.941833,559.921692 678.800598,568.972107 677.613159,578.461487  z" data-darkreader-inline-fill="" data-darkreader-inline-stroke="" style="--darkreader-inline-fill: #ffffff; --darkreader-inline-stroke: none;"/>
<path fill="#FFFFFF" opacity="1.000000" stroke="none" d=" M507.368866,577.410767   C506.994446,580.120117 506.736023,582.423523 506.274139,584.685364   C505.946564,586.289551 504.614258,586.639648 503.182617,586.478516   C501.405121,586.278503 501.210938,585.029358 501.381439,583.560120   C502.221222,576.323181 503.030579,569.082703 503.892212,561.848450   C504.050812,560.516663 504.371552,559.151794 506.036102,558.897766   C508.583649,558.509033 508.968811,560.459534 509.512573,562.366211   C511.758087,561.315063 512.994202,558.624573 515.782410,558.715515   C516.943604,558.753357 518.245544,558.653992 518.665100,560.070251   C519.086243,561.491577 518.601746,563.172546 517.256226,563.367859   C509.177551,564.540649 508.687378,571.016602 507.368866,577.410767  z" data-darkreader-inline-fill="" data-darkreader-inline-stroke="" style="--darkreader-inline-fill: #ffffff; --darkreader-inline-stroke: none;"/>
<path fill="#FFFFFF" opacity="1.000000" stroke="none" d=" M770.869995,584.694092   C767.209045,587.476868 765.619995,586.007446 765.938293,582.347961   C766.499634,575.894165 767.363892,569.462219 768.283813,563.047363   C768.517761,561.416016 768.264099,559.076111 770.895386,558.863953   C773.485779,558.655029 773.058594,561.234314 773.806396,562.882019   C775.921875,560.896118 777.395569,558.771729 780.083252,558.366638   C781.303955,558.182678 782.537598,558.092041 783.099243,559.383301   C783.662109,560.677124 783.546021,562.688416 782.334473,562.942627   C771.223145,565.273682 772.968689,574.735657 771.331543,582.323853   C771.191650,582.972473 771.136292,583.639343 770.869995,584.694092  z" data-darkreader-inline-fill="" data-darkreader-inline-stroke="" style="--darkreader-inline-fill: #ffffff; --darkreader-inline-stroke: none;"/>
<path fill="#4B0082" opacity="1.000000" stroke="none" d=" M248.263367,540.057373   C239.024963,540.187744 230.205383,540.208984 221.385818,540.226135   C220.886963,540.227112 220.387192,540.206299 219.889313,540.173340   C218.697617,540.094482 217.076630,539.914307 216.947174,538.740784   C216.174789,531.739136 205.888565,532.196106 206.030563,524.503479   C206.171860,516.849915 206.125031,509.191467 206.052811,501.536163   C206.025208,498.610626 206.716949,496.389923 209.753418,495.233124   C211.790558,494.457031 213.744400,493.119537 214.537643,491.047455   C216.464111,486.015350 220.314377,485.529755 224.958496,485.707703   C231.605453,485.962372 238.273224,485.840088 244.927002,485.674072   C247.914536,485.599548 250.031677,486.340912 251.254593,489.304321   C252.295486,491.826660 254.159760,494.017365 256.670776,494.942902   C260.391846,496.314392 261.074463,498.875854 261.008484,502.360229   C260.869843,509.680756 260.915680,517.006409 260.996399,524.328674   C261.028900,527.272888 260.281464,529.536865 257.236420,530.589539   C252.710373,532.154175 251.705734,536.982727 248.263367,540.057373  M241.753830,497.585815   C233.627930,493.841339 226.339554,494.963409 220.721313,500.823792   C215.801651,505.955566 214.483154,514.421326 217.613510,520.778381   C220.718552,527.083984 228.099609,531.301453 234.762360,530.577087   C242.596359,529.725342 248.717773,524.555969 250.504913,517.282959   C252.371384,509.687012 249.546463,502.994141 241.753830,497.585815  z" data-darkreader-inline-fill="" data-darkreader-inline-stroke="" style="--darkreader-inline-fill: #4B0082; --darkreader-inline-stroke: none;"/>
<path fill="#FFFFFF" opacity="1.000000" stroke="none" d=" M229.013489,498.551758   C238.916153,496.641785 246.693939,501.670288 248.347702,510.671509   C249.820694,518.688843 244.494156,526.189453 236.145111,527.854675   C227.977783,529.483704 220.279480,524.147949 218.431107,515.577026   C216.947220,508.696259 220.658707,502.548828 229.013489,498.551758  z" data-darkreader-inline-fill="" data-darkreader-inline-stroke="" style="--darkreader-inline-fill: #ffffff; --darkreader-inline-stroke: none;"/>
</svg>